# xmcd
#
# Track frame offsets: 
#        150
#        20668
#        40745
#        61158
#        76443
#        95760
#        111828
#        134343
#        152373
#        172910
#
# Disc length: 2539 seconds
#
# Revision: 2
# Processed by: cddbd v1.5.2PL0 Copyright (c) Steve Scherf et al.
# Submitted via: ExactAudioCopy v0.99pb5
#
DISCID=7609e90a
DTITLE=Colors Of LCGC - Man Within
DYEAR=1989
DGENRE=Gospel
TTITLE0=Only You
TTITLE1=Man Within
TTITLE2=Weather The Storm
TTITLE3=Say A Prayer
TTITLE4=Choose To Stay
TTITLE5=Change
TTITLE6=Holy Spirit
TTITLE7=People Cry
TTITLE8=Stand
TTITLE9=God Is Trying To Tell You Something
EXTD=
EXTT0=
EXTT1=
EXTT2=
EXTT3=
EXTT4=
EXTT5=
EXTT6=
EXTT7=
EXTT8=
EXTT9=
PLAYORDER=
